<svg xmlns="http://www.w3.org/2000/svg" viewBox="0 0 48 48" width="24px" height="24px">
  <path fill="#4285F4" d="M24 9.5c3.5 0 6.6 1.3 9 3.5l6.7-6.7C35.6 2.7 30.2 0 24 0 14.6 0 6.5 5.4 2.4 13.2l7.9 6.1C12.3 13.4 17.7 9.5 24 9.5z"></path>
  <path fill="#34A853" d="M46.5 24.5c0-1.6-.1-3.1-.4-4.5H24v9h12.7c-.6 3-2.3 5.5-4.9 7.2l7.6 5.9c4.4-4.1 7.1-10.1 7.1-17.6z"></path>
  <path fill="#FBBC05" d="M10.3 28.8c-1.2-3-1.2-6.5 0-9.5l-7.9-6.1C.8 17.7 0 20.8 0 24s.8 6.3 2.4 10.8l7.9-6z"></path>
  <path fill="#EA4335" d="M24 48c6.2 0 11.5-2 15.3-5.4l-7.6-5.9c-2.1 1.4-4.8 2.3-7.7 2.3-6.3 0-11.7-4-13.7-9.6l-7.9 6.1C6.5 42.6 14.6 48 24 48z"></path>
</svg>
