<?xml version="1.0" encoding="utf-8"?>
<!-- Generator: Adobe Illustrator 24.3.0, SVG Export Plug-In . SVG Version: 6.00 Build 0)  -->
<svg version="1.1" id="Layer_1" xmlns="http://www.w3.org/2000/svg" xmlns:xlink="http://www.w3.org/1999/xlink" x="0px" y="0px"
	 viewBox="0 0 200 200" enable-background="new 0 0 200 200" xml:space="preserve">
<path fill="#282828" d="M115.182,106.648c-2.7,0-5.2-1-7.1-2.9c-0.8-0.8-0.8-2,0-2.8c0.8-0.8,2-0.8,2.8,0c2.3,2.3,6.2,2.3,8.5,0
	l19.8-19.8c2.3-2.3,2.3-6.1,0-8.5l-11.3-11.3c-2.3-2.3-6.1-2.3-8.5,0l-19.8,19.7c-2.3,2.3-2.3,6.1,0,8.5c0.8,0.8,0.8,2,0,2.8
	c-0.8,0.8-2,0.8-2.8,0c-3.9-3.9-3.9-10.2,0-14.1l19.8-19.8c3.9-3.9,10.3-3.9,14.2,0l11.3,11.3c3.9,3.9,3.9,10.2,0,14.1l-19.8,19.9
	C120.382,105.648,117.882,106.648,115.182,106.648z"/>
<path fill="#282828" d="M76.982,144.848c-2.6,0-5.1-1-7.1-2.9l-11.3-11.4c-3.9-3.8-3.9-10.2,0-14.1l19.8-19.8
	c3.8-3.8,10.4-3.8,14.1,0c0.8,0.8,0.8,2,0,2.8c-0.8,0.8-2,0.8-2.8,0c-2.3-2.3-6.2-2.3-8.5,0l-19.7,19.8c-2.3,2.3-2.3,6.1,0,8.5
	l11.3,11.3c2.3,2.3,6.1,2.3,8.5,0l19.8-19.8c2.3-2.3,2.3-6.1,0-8.5c-0.8-0.8-0.8-2,0-2.8c0.8-0.8,2-0.8,2.8,0
	c3.9,3.9,3.9,10.2,0,14.1l-19.8,19.9C82.082,143.848,79.582,144.848,76.982,144.848z"/>
<path fill="#282828" d="M76.982,125.548c-0.5,0-1-0.2-1.4-0.6c-0.8-0.8-0.8-2,0-2.8l45.3-45.3c0.8-0.8,2-0.8,2.8,0
	c0.8,0.8,0.8,2,0,2.8l-45.3,45.3C77.982,125.348,77.482,125.548,76.982,125.548z"/>
</svg>
